<svg xmlns="http://www.w3.org/2000/svg" xmlns:svg="http://www.w3.org/2000/svg" xmlns:xlink="http://www.w3.org/1999/xlink" version="1.0" height="675pt" width="697.5pt" viewBox="379.3985 473 705.5 681" ><defs><style type="text/css">
            @font-face {
                font-family: 'noto_regular';
                src: url('https://app.creately.com/diagram/assets/fonts/noto/noto-regular.woff') format('woff'),
                     url('https://app.creately.com/diagram/assets/fonts/noto/noto-regular.woff2') format('woff2');
                font-weight: normal;
                font-style: normal;
            }
        p {
            margin: 0;
        }
        </style></defs><defs><style>
            span{ display: inline-block; }
        </style></defs><g id="5ycoj2shr4"><g transform="translate(385 640)"><ellipse cx="20.3985" cy="10.10075" rx="10.19925" ry="10.10075" fill="rgba(255,255,255,1)" stroke="#ea5b67" stroke-width="1.5" stroke-linecap="round" stroke-linejoin="round"/><path d="M 20.3985,20.2015 L 20.3985,48.483599999999996 L 40.797,80.806 M 20.3985,48.483599999999996 L 0,80.806 M 2.03985,30.30225 L 38.757149999999996,30.30225" fill="none" stroke="#ea5b67" stroke-width="1.5" stroke-linecap="round" stroke-linejoin="round"/><rect x="0" y="0" width="40.797" height="80.806" fill="rgba(255,255,255,0.01)" stroke="rgba(255,255,255,0.01)" stroke-width="1.5" stroke-linecap="round" stroke-linejoin="round"/></g><g transform="translate(384.3985, 725.806) rotate(0, 21, 0)" width="42" height="51"><text text-decoration="none" x="1.5" fill="rgb(75, 75, 75)" font-size="10pt" font-family="Lato"  y="14">Admin</text><text text-decoration="none" x="40.5" fill="rgb(75, 75, 75)" font-size="10pt" font-family="Lato"  y="14"></text><text text-decoration="none" x="21" fill="#4b4b4b" font-size="10pt" font-family="noto_regular"  y="36"></text></g></g><g id="211zu61ohn"><g transform="translate(510 500)"><rect x="0" y="0" width="460.1000189781189" height="494.9999809265137" fill="rgba(255,255,255,1)" stroke="#cccccc" stroke-width="1.5" stroke-linecap="round" stroke-linejoin="round"/></g><g transform="translate(717.5500094890594, 510) rotate(0, 22.5, 0)" width="45" height="18"><text text-decoration="none" x="0.5" fill="rgb(84, 84, 84)" font-size="10pt" font-family="noto_regular"  y="17">System</text><text text-decoration="none" x="44.5" fill="#4b4b4b" font-size="10pt" font-family="noto_regular"  y="17"></text></g><g transform="translate(620.5500094890594, 476) rotate(0, 119.5, 19)" width="239" height="19"><text text-decoration="none" x="11" fill="rgb(75, 75, 75)" font-size="10pt" font-family="Lato"  y="17">E-COMMERCE&#160;</text><text text-decoration="none" x="97" fill="rgb(75, 75, 75)" font-size="10pt" font-family="Lato"  y="17">WEBSITE&#160;</text><text text-decoration="none" x="152" fill="rgb(75, 75, 75)" font-size="10pt" font-family="Lato"  y="17">:&#160;</text><text text-decoration="none" x="158" fill="rgb(75, 75, 75)" font-size="10pt" font-family="Lato"  y="17">trailers.com</text><text text-decoration="none" x="228" fill="#4b4b4b" font-size="10pt" font-family="noto_regular"  y="17"></text></g></g><g id="9blgfata5s"><g transform="translate(1040 630)"><ellipse cx="20.3985" cy="10.10075" rx="10.19925" ry="10.10075" fill="rgba(255,255,255,1)" stroke="#ea5b67" stroke-width="1.5" stroke-linecap="round" stroke-linejoin="round"/><path d="M 20.3985,20.2015 L 20.3985,48.483599999999996 L 40.797,80.806 M 20.3985,48.483599999999996 L 0,80.806 M 2.03985,30.30225 L 38.757149999999996,30.30225" fill="none" stroke="#ea5b67" stroke-width="1.5" stroke-linecap="round" stroke-linejoin="round"/><rect x="0" y="0" width="40.797" height="80.806" fill="rgba(255,255,255,0.01)" stroke="rgba(255,255,255,0.01)" stroke-width="1.5" stroke-linecap="round" stroke-linejoin="round"/></g><g transform="translate(1045.3985, 715.806) rotate(0, 15, 0)" width="30" height="19"><text text-decoration="none" x="1.5" fill="rgb(75, 75, 75)" font-size="10pt" font-family="Lato"  y="17">User</text><text text-decoration="none" x="28.5" fill="#4b4b4b" font-size="10pt" font-family="noto_regular"  y="17"></text></g></g><g id="21ie6z71ux"><g transform="translate(611.15 529.9)"><ellipse cx="104.47499716281891" cy="17.57500195503235" rx="104.47499716281891" ry="17.57500195503235" fill="rgba(255,255,255,1)" stroke="#003494" stroke-width="2" stroke-linecap="round" stroke-linejoin="round"/></g><g transform="translate(698.1249971628189, 537.9750019550323) rotate(0, 17.5, 9.5)" width="35" height="19"><text text-decoration="none" x="1" fill="rgb(20, 56, 114)" font-size="10pt" font-family="Lato"  y="17">Login</text><text text-decoration="none" x="34" fill="#4b4b4b" font-size="10pt" font-family="noto_regular"  y="17"></text></g></g><g id="4uhwa0g8xv"><g><path d="M 424,667 L 424,667" fill="none" stroke="#a0a0a0" stroke-width="1.5" stroke-linecap="round" stroke-linejoin="round"/></g></g><g id="2oh9d14g47"><g><path d="M 425,670 L 618.2,552.55" fill="none" stroke="#a0a0a0" stroke-width="1.5" stroke-linecap="round" stroke-linejoin="round"/><path d="M 618.2,552.55 L 603.807844216416,553.984990467199 L 610.7696577733469,557.0670481082836 L 610.3011291036246,564.6661538576519 Z" fill="rgb(160,160,160)" stroke="#a0a0a0" stroke-width="1.5" stroke-linecap="round" stroke-linejoin="round"/></g></g><g id="22d78xjbqq"><g><path d="M 815,555 L 1040,660" fill="none" stroke="#a0a0a0" stroke-width="1.5" stroke-linecap="round" stroke-linejoin="round"/><path d="M 815,555 L 824.1766945384505,566.1795180167964 L 822.87981913118,558.677248927884 L 829.4627628550895,554.8522287668555 Z" fill="rgb(160,160,160)" stroke="#a0a0a0" stroke-width="1.5" stroke-linecap="round" stroke-linejoin="round"/></g></g><g id="2lj2cw0dza"><g transform="translate(555 585)"><ellipse cx="75.00000095367432" cy="27.500005394220352" rx="75.00000095367432" ry="27.500005394220352" fill="rgba(255,255,255,1)" stroke="#003494" stroke-width="2" stroke-linecap="round" stroke-linejoin="round"/></g><g transform="translate(568.5000009536743, 595.0000053942204) rotate(0, 61.5, 17.5)" width="123" height="35"><text text-decoration="none" x="3.5" fill="rgb(20, 56, 114)" font-size="10pt" font-family="Lato"  y="14">Add/Update/Delete&#160;</text><text text-decoration="none" x="34.5" fill="rgb(20, 56, 114)" font-size="10pt" font-family="Lato"  y="36">Category</text><text text-decoration="none" x="88.5" fill="#4b4b4b" font-size="10pt" font-family="noto_regular"  y="36"></text></g></g><g id="1qewty3ges"><g transform="translate(745.05 590)"><ellipse cx="82.50000321865082" cy="22.5000022649765" rx="82.50000321865082" ry="22.5000022649765" fill="rgba(255,255,255,1)" stroke="#003494" stroke-width="2" stroke-linecap="round" stroke-linejoin="round"/></g><g transform="translate(791.0500032186508, 603.0000022649765) rotate(0, 36.5, 9.5)" width="73" height="19"><text text-decoration="none" x="2.5" fill="rgb(20, 56, 114)" font-size="10pt" font-family="Lato"  y="17">Add&#160;</text><text text-decoration="none" x="29.5" fill="rgb(20, 56, 114)" font-size="10pt" font-family="Lato"  y="17">to&#160;</text><text text-decoration="none" x="45.5" fill="rgb(20, 56, 114)" font-size="10pt" font-family="Lato"  y="17">Cart</text><text text-decoration="none" x="70.5" fill="#4b4b4b" font-size="10pt" font-family="noto_regular"  y="17"></text></g></g><g id="anugg5r1k8"><g transform="translate(745.95 700.9)"><ellipse cx="86.97499549388885" cy="19.550001055002213" rx="86.97499549388885" ry="19.550001055002213" fill="rgba(255,255,255,1)" stroke="#003494" stroke-width="2" stroke-linecap="round" stroke-linejoin="round"/></g><g transform="translate(778.4249954938889, 710.9500010550022) rotate(0, 54.5, 9.5)" width="109" height="19"><text text-decoration="none" x="4" fill="rgb(20, 56, 114)" font-size="10pt" font-family="Lato"  y="17">Order&#160;</text><text text-decoration="none" x="42" fill="rgb(20, 56, 114)" font-size="10pt" font-family="Lato"  y="17">Placement</text><text text-decoration="none" x="105" fill="#4b4b4b" font-size="10pt" font-family="noto_regular"  y="17"></text></g></g><g id="1rsnae7cas"><g transform="translate(544.9999999999999 709.8)"><ellipse cx="82.47500389814377" cy="32.50000125169754" rx="82.47500389814377" ry="32.50000125169754" fill="rgba(255,255,255,1)" stroke="#003494" stroke-width="2" stroke-linecap="round" stroke-linejoin="round"/></g><g transform="translate(565.9750038981437, 724.8000012516975) rotate(0, 61.5, 17.5)" width="123" height="35"><text text-decoration="none" x="3.5" fill="rgb(20, 56, 114)" font-size="10pt" font-family="Lato"  y="14">Add/Update/Delete&#160;</text><text text-decoration="none" x="20.5" fill="rgb(20, 56, 114)" font-size="10pt" font-family="Lato"  y="36">Manufacturer</text><text text-decoration="none" x="102.5" fill="#4b4b4b" font-size="10pt" font-family="noto_regular"  y="36"></text></g></g><g id="znqq6gkmof"><g transform="translate(745 645)"><ellipse cx="85.00000035762787" cy="25.00000110268593" rx="85.00000035762787" ry="25.00000110268593" fill="rgba(255,255,255,1)" stroke="#003494" stroke-width="2" stroke-linecap="round" stroke-linejoin="round"/></g><g transform="translate(767.5000003576279, 660.5000011026859) rotate(0, 62.5, 9.5)" width="125" height="19"><text text-decoration="none" x="5" fill="rgb(20, 56, 114)" font-size="10pt" font-family="Lato"  y="17">Update/Delete&#160;</text><text text-decoration="none" x="95" fill="rgb(20, 56, 114)" font-size="10pt" font-family="Lato"  y="17">Cart</text><text text-decoration="none" x="120" fill="#4b4b4b" font-size="10pt" font-family="noto_regular"  y="17"></text></g></g><g id="2o4z0rxfa4"><g transform="translate(550 786.05)"><ellipse cx="80.00000607967377" cy="19.999999791383743" rx="80.00000607967377" ry="19.999999791383743" fill="rgba(255,255,255,1)" stroke="#003494" stroke-width="2" stroke-linecap="round" stroke-linejoin="round"/></g><g transform="translate(579.5000060796738, 796.5499997913837) rotate(0, 50.5, 9.5)" width="101" height="19"><text text-decoration="none" x="3" fill="rgb(20, 56, 114)" font-size="10pt" font-family="Lato"  y="17">Add&#160;</text><text text-decoration="none" x="30" fill="rgb(20, 56, 114)" font-size="10pt" font-family="Lato"  y="17">Warehouse</text><text text-decoration="none" x="98" fill="#4b4b4b" font-size="10pt" font-family="noto_regular"  y="17"></text></g></g><g id="1tirdh5qna"><g transform="translate(555 645)"><ellipse cx="76.97501236200333" cy="30.00000423192978" rx="76.97501236200333" ry="30.00000423192978" fill="rgba(255,255,255,1)" stroke="#003494" stroke-width="2" stroke-linecap="round" stroke-linejoin="round"/></g><g transform="translate(570.4750123620033, 657.5000042319298) rotate(0, 61.5, 17.5)" width="123" height="35"><text text-decoration="none" x="3.5" fill="rgb(20, 56, 114)" font-size="10pt" font-family="Lato"  y="14">Add/Update/Delete&#160;</text><text text-decoration="none" x="36" fill="rgb(20, 56, 114)" font-size="10pt" font-family="Lato"  y="36">Product&#160;</text><text text-decoration="none" x="87" fill="#4b4b4b" font-size="10pt" font-family="noto_regular"  y="36"></text></g></g><g id="91kkii76xc"><g transform="translate(730 750) rotate(-1.1008951499025766e-15)"><ellipse cx="92.45000398159027" cy="26.0000017285347" rx="92.45000398159027" ry="26.0000017285347" fill="rgba(255,255,255,1)" stroke="#003494" stroke-width="2" stroke-linecap="round" stroke-linejoin="round"/></g><g transform="translate(734.9500039815903, 766.5000017285347) rotate(0, 87.5, 9.5)" width="175" height="19"><text text-decoration="none" x="8" fill="rgb(20, 56, 114)" font-size="10pt" font-family="Lato"  y="17">Calculate&#160;</text><text text-decoration="none" x="65" fill="rgb(20, 56, 114)" font-size="10pt" font-family="Lato"  y="17">Shipping&#160;</text><text text-decoration="none" x="120" fill="rgb(20, 56, 114)" font-size="10pt" font-family="Lato"  y="17">and&#160;</text><text text-decoration="none" x="146" fill="rgb(20, 56, 114)" font-size="10pt" font-family="Lato"  y="17">Tax</text><text text-decoration="none" x="167" fill="#4b4b4b" font-size="10pt" font-family="noto_regular"  y="17"></text></g></g><g id="1vkl2lmmil"><g transform="translate(750 820)"><ellipse cx="85.00001662969589" cy="20.00000160932541" rx="85.00001662969589" ry="20.00000160932541" fill="rgba(255,255,255,1)" stroke="#003494" stroke-width="2" stroke-linecap="round" stroke-linejoin="round"/></g><g transform="translate(806.5000166296959, 830.5000016093254) rotate(0, 28.5, 9.5)" width="57" height="19"><text text-decoration="none" x="1.5" fill="rgb(20, 56, 114)" font-size="10pt" font-family="Lato"  y="17">Payment</text><text text-decoration="none" x="55.5" fill="#4b4b4b" font-size="10pt" font-family="noto_regular"  y="17"></text></g></g><g id="zhsy6pzozw"><g transform="translate(665 940)"><ellipse cx="80.00000065565109" cy="17.02500370144844" rx="80.00000065565109" ry="17.02500370144844" fill="rgba(255,255,255,1)" stroke="#003494" stroke-width="2" stroke-linecap="round" stroke-linejoin="round"/></g><g transform="translate(723.0000006556511, 947.5250037014484) rotate(0, 22, 9.5)" width="44" height="19"><text text-decoration="none" x="0.5" fill="rgb(20, 56, 114)" font-size="10pt" font-family="Lato"  y="17">Logout</text><text text-decoration="none" x="43.5" fill="#4b4b4b" font-size="10pt" font-family="noto_regular"  y="17"></text></g></g><g id="2esylxyq1b"><g><path d="M 1039,661 L 915,670" fill="none" stroke="#a0a0a0" stroke-width="1.5" stroke-linecap="round" stroke-linejoin="round"/><path d="M 915,670 L 928.461639534905,675.2893862377582 L 923.6728004333468,669.3705225491926 L 927.5567617651352,662.8221814098196 Z" fill="rgb(160,160,160)" stroke="#a0a0a0" stroke-width="1.5" stroke-linecap="round" stroke-linejoin="round"/></g></g><g id="2bevxvxr69"><g><path d="M 1039,659 L 920,720" fill="none" stroke="#a0a0a0" stroke-width="1.5" stroke-linecap="round" stroke-linejoin="round"/><path d="M 920,720 L 934.458309746363,719.6118956092434 L 927.7381864105711,716.0333666298753 L 928.7562494853503,708.4882042803824 Z" fill="rgb(160,160,160)" stroke="#a0a0a0" stroke-width="1.5" stroke-linecap="round" stroke-linejoin="round"/></g></g><g id="40vq8bklcd"><g><path d="M 1039,658 L 915,775" fill="none" stroke="#a0a0a0" stroke-width="1.5" stroke-linecap="round" stroke-linejoin="round"/><path d="M 915,775 L 928.7762250975156,770.5944389911746 L 921.324654308514,769.032382628257 L 920.1977378280264,761.5027088935963 Z" fill="rgb(160,160,160)" stroke="#a0a0a0" stroke-width="1.5" stroke-linecap="round" stroke-linejoin="round"/></g></g><g id="195wnh1876"><g><path d="M 1038,658 L 915,835" fill="none" stroke="#a0a0a0" stroke-width="1.5" stroke-linecap="round" stroke-linejoin="round"/><path d="M 915,835 L 927.5757447311809,827.8554923055483 L 919.9622098677507,827.8592589707978 L 917.3108848720713,820.722284606845 Z" fill="rgb(160,160,160)" stroke="#a0a0a0" stroke-width="1.5" stroke-linecap="round" stroke-linejoin="round"/></g></g><g id="3lkj1k2wnk"><g><path d="M 1040,660 L 825,955" fill="none" stroke="#a0a0a0" stroke-width="1.5" stroke-linecap="round" stroke-linejoin="round"/><path d="M 825,955 L 839.4500778385362,954.3766251527807 L 832.6726009119653,950.9079461802852 L 833.5677248973598,943.3472133880748 Z" fill="rgb(160,160,160)" stroke="#a0a0a0" stroke-width="1.5" stroke-linecap="round" stroke-linejoin="round"/></g></g><g id="bcqc0v6xtw"><g><path d="M 425,670 L 555,615" fill="none" stroke="#a0a0a0" stroke-width="1.5" stroke-linecap="round" stroke-linejoin="round"/><path d="M 555,615 L 540.5521859675246,614.3261933341756 L 546.9916239401693,618.388159102236 L 545.4226858529834,625.8382839725326 Z" fill="rgb(160,160,160)" stroke="#a0a0a0" stroke-width="1.5" stroke-linecap="round" stroke-linejoin="round"/></g></g><g id="2fsi8n7umn"><g><path d="M 425,670 L 555,675" fill="none" stroke="#a0a0a0" stroke-width="1.5" stroke-linecap="round" stroke-linejoin="round"/><path d="M 555,675 L 542.2064222735273,668.2533182454926 L 546.3108101735966,674.6658003912921 L 541.7260082472623,680.7440829283839 Z" fill="rgb(160,160,160)" stroke="#a0a0a0" stroke-width="1.5" stroke-linecap="round" stroke-linejoin="round"/></g></g><g id="1aha2w4ccg"><g><path d="M 425,670 L 545,735" fill="none" stroke="#a0a0a0" stroke-width="1.5" stroke-linecap="round" stroke-linejoin="round"/><path d="M 545,735 L 536.5077938930121,723.2920633254045 L 537.3540161430883,730.8584254108395 L 530.5542545362528,734.283212907114 Z" fill="rgb(160,160,160)" stroke="#a0a0a0" stroke-width="1.5" stroke-linecap="round" stroke-linejoin="round"/></g></g><g id="1vxpzpj8pm"><g><path d="M 425,670 L 555,800" fill="none" stroke="#a0a0a0" stroke-width="1.5" stroke-linecap="round" stroke-linejoin="round"/><path d="M 555,800 L 550.196325554295,786.3574907894631 L 548.8512721145861,793.8512721145861 L 541.3574907894631,795.196325554295 Z" fill="rgb(160,160,160)" stroke="#a0a0a0" stroke-width="1.5" stroke-linecap="round" stroke-linejoin="round"/></g></g><g id="1j1ykr9v6v"><g transform="translate(1040 790)"><ellipse cx="20.3985" cy="10.10075" rx="10.19925" ry="10.10075" fill="rgba(255,255,255,1)" stroke="#ea5b67" stroke-width="1.5" stroke-linecap="round" stroke-linejoin="round"/><path d="M 20.3985,20.2015 L 20.3985,48.483599999999996 L 40.797,80.806 M 20.3985,48.483599999999996 L 0,80.806 M 2.03985,30.30225 L 38.757149999999996,30.30225" fill="none" stroke="#ea5b67" stroke-width="1.5" stroke-linecap="round" stroke-linejoin="round"/><rect x="0" y="0" width="40.797" height="80.806" fill="rgba(255,255,255,0.01)" stroke="rgba(255,255,255,0.01)" stroke-width="1.5" stroke-linecap="round" stroke-linejoin="round"/></g><g transform="translate(1038.8985, 875.806) rotate(0, 21.5, 0)" width="43" height="19"><text text-decoration="none" x="1.5" fill="rgb(75, 75, 75)" font-size="10pt" font-family="Lato"  y="17">Paypal</text><text text-decoration="none" x="41.5" fill="#4b4b4b" font-size="10pt" font-family="noto_regular"  y="17"></text></g></g><g id="1thrqpji8w"><g><path d="M 1045,820 L 920,840" fill="none" stroke="#a0a0a0" stroke-width="1.5" stroke-linecap="round" stroke-linejoin="round"/></g></g><g id="1tj13zo314"><g><path d="M 1035,660 L 910,615" fill="none" stroke="#a0a0a0" stroke-width="1.5" stroke-linecap="round" stroke-linejoin="round"/><path d="M 910,615 L 920.1553944677086,625.2986071361682 L 918.1815940962755,617.9453738746591 L 924.3893878211178,613.5375144878092 Z" fill="rgb(160,160,160)" stroke="#a0a0a0" stroke-width="1.5" stroke-linecap="round" stroke-linejoin="round"/></g></g><g id="uw3oz5bvz5"><g transform="translate(540 835)"><ellipse cx="82.47500389814377" cy="20.00000160932541" rx="82.47500389814377" ry="20.00000160932541" fill="rgba(255,255,255,1)" stroke="#003494" stroke-width="2" stroke-linecap="round" stroke-linejoin="round"/></g><g transform="translate(549.4750038981438, 845.5000016093254) rotate(0, 73, 9.5)" width="146" height="19"><text text-decoration="none" x="5" fill="rgb(20, 56, 114)" font-size="10pt" font-family="Lato"  y="17">Add&#160;</text><text text-decoration="none" x="32" fill="rgb(20, 56, 114)" font-size="10pt" font-family="Lato"  y="17">Country&#160;</text><text text-decoration="none" x="84" fill="rgb(20, 56, 114)" font-size="10pt" font-family="Lato"  y="17">and&#160;</text><text text-decoration="none" x="110" fill="rgb(20, 56, 114)" font-size="10pt" font-family="Lato"  y="17">State</text><text text-decoration="none" x="141" fill="#4b4b4b" font-size="10pt" font-family="noto_regular"  y="17"></text></g></g><g id="1u5l5aoktx"><g transform="translate(535 880)"><ellipse cx="80.00000607967377" cy="25.00000110268593" rx="80.00000607967377" ry="25.00000110268593" fill="rgba(255,255,255,1)" stroke="#003494" stroke-width="2" stroke-linecap="round" stroke-linejoin="round"/></g><g transform="translate(548.5000060796738, 887.5000011026859) rotate(0, 66.5, 17.5)" width="133" height="35"><text text-decoration="none" x="3.5" fill="rgb(20, 56, 114)" font-size="10pt" font-family="Lato"  y="14">Add/update&#160;</text><text text-decoration="none" x="78.5" fill="rgb(20, 56, 114)" font-size="10pt" font-family="Lato"  y="14">shipping&#160;</text><text text-decoration="none" x="22.5" fill="rgb(20, 56, 114)" font-size="10pt" font-family="Lato"  y="36">charge&#160;</text><text text-decoration="none" x="65.5" fill="rgb(20, 56, 114)" font-size="10pt" font-family="Lato"  y="36">and&#160;</text><text text-decoration="none" x="91.5" fill="rgb(20, 56, 114)" font-size="10pt" font-family="Lato"  y="36">tax</text><text text-decoration="none" x="110.5" fill="#4b4b4b" font-size="10pt" font-family="noto_regular"  y="36"></text></g></g><g id="67blodj5kz"><g><path d="M 430,675 L 540,855" fill="none" stroke="#a0a0a0" stroke-width="1.5" stroke-linecap="round" stroke-linejoin="round"/><path d="M 540,855 L 538.5315191695872,840.6112227833421 L 535.465671806175,847.5801902282864 L 527.8654962489377,847.1293479015168 Z" fill="rgb(160,160,160)" stroke="#a0a0a0" stroke-width="1.5" stroke-linecap="round" stroke-linejoin="round"/></g></g><g id="117dfdind4"><g><path d="M 425,670 L 535,910" fill="none" stroke="#a0a0a0" stroke-width="1.5" stroke-linecap="round" stroke-linejoin="round"/><path d="M 535,910 L 535.247052113191,895.5385923578211 L 531.3769313134011,902.0951228656024 L 523.8837418270124,900.7467762389863 Z" fill="rgb(160,160,160)" stroke="#a0a0a0" stroke-width="1.5" stroke-linecap="round" stroke-linejoin="round"/></g></g><g id="9ktb8kr9pn"><g><path d="M 425,675 L 665,960" fill="none" stroke="#a0a0a0" stroke-width="1.5" stroke-linecap="round" stroke-linejoin="round"/><path d="M 665,960 L 653.1252118800478,951.7427151650107 L 656.4165114260583,958.6080829339554 L 651.124322398127,964.0815336368555 Z" fill="rgb(160,160,160)" stroke="#a0a0a0" stroke-width="1.5" stroke-linecap="round" stroke-linejoin="round"/></g></g><g id="13hb3nmrid"><g transform="translate(885 1090)"><ellipse cx="45.5" cy="30.5" rx="45.5" ry="30.5" fill="rgba(26,188,156,1)" stroke="#1abc9c" stroke-width="1.5" stroke-linecap="round" stroke-linejoin="round"/></g><g transform="translate(900, 1111) rotate(0, 30.5, 9.5)" width="61" height="19"><text text-decoration="none" x="4" fill="rgb(255, 255, 255)" font-size="10pt" font-family="Lato"  y="17">Use&#160;</text><text text-decoration="none" x="29" fill="rgb(255, 255, 255)" font-size="10pt" font-family="Lato"  y="17">Case</text><text text-decoration="none" x="57" fill="#4b4b4b" font-size="10pt" font-family="noto_regular"  y="17"></text></g></g></svg>